# xmcd
#
# Track frame offsets:
#	150
#	17826
#	31686
#	46899
#	63015
#	77163
#	95976
#	111128
#	126672
#	148313
#	165916
#	183536
#	200402
#	219073
#	239112
#
# Disc length: 3374 seconds
#
# Revision: 1
# Processed by: cddbd v1.5.1PL0 Copyright (c) Steve Scherf et al.
# Submitted via: audiograbber 1.83.01
#
DISCID=d40d2c0f
DTITLE=Eva a Vasek - To byval raj 1
DYEAR=2005
DGENRE=Folk
TTITLE0=To byval raj
TTITLE1=Dekujem ti pisnicko
TTITLE2=Vdovy z Cordoby
TTITLE3=Aloha oe
TTITLE4=Chajda mala
TTITLE5=Az budes jednou
TTITLE6=Jsme deti slunce
TTITLE7=Jen jeden den s tebou
TTITLE8=Senorito mych snu
TTITLE9=Zlaty krizek
TTITLE10=Vrat se lasko
TTITLE11=Ty, slunce a ja
TTITLE12=Vyzvaneni
TTITLE13=Zbejva jen louceni
TTITLE14=Together Again
EXTD=
EXTT0=
EXTT1=
EXTT2=
EXTT3=
EXTT4=
EXTT5=
EXTT6=
EXTT7=
EXTT8=
EXTT9=
EXTT10=
EXTT11=
EXTT12=
EXTT13=
EXTT14=
PLAYORDER=
